<svg xmlns="http://www.w3.org/2000/svg" viewBox="0 0 140.38 140.37"><defs><style>.cls-1{fill:#fff;}</style></defs><g id="Layer_2" data-name="Layer 2"><g id="Layer_1-2" data-name="Layer 1"><path class="cls-1" d="M127.62,0H12.76A12.74,12.74,0,0,0,0,12.74V127.61a12.76,12.76,0,0,0,12.76,12.76H127.62a12.75,12.75,0,0,0,12.76-12.75V12.74A12.74,12.74,0,0,0,127.62,0Zm-4.78,91.05a2.68,2.68,0,0,1-2.67,2.68h0l-8.36,0c-2,0-4.22.24-5.09-.81a6.86,6.86,0,0,1-1.26-4.48l-.51-56.48-17-.26v9.59H84.05L83.87,41A23.53,23.53,0,0,0,80,35.8a16.94,16.94,0,0,0-6-3.69,27.64,27.64,0,0,0-9.52-1.39,25.88,25.88,0,0,0-16,5.14,33.41,33.41,0,0,0-10.52,14,51.19,51.19,0,0,0-3.71,19.9V72.3A48.8,48.8,0,0,0,38.07,92a34.09,34.09,0,0,0,11,14.08,27.88,27.88,0,0,0,17,5.24,23.7,23.7,0,0,0,9.5-1.65,16.46,16.46,0,0,0,6.09-4.39,20.58,20.58,0,0,0,3.66-6l.14-.4h3.92c0,3.24,1.24,6.69,3.75,8.6a18.16,18.16,0,0,0,11.13,3.85h9.28a9.36,9.36,0,0,1,9.33,9.33v2.21H17.53V17.53H83.42A48.8,48.8,0,0,1,96,18.67a27.62,27.62,0,0,1,10.47,5.83c11.21,9.32,16.4,23,16.4,37.41Zm-34.91-21V72c0,7.14-1.61,12.86-4.75,17a15.66,15.66,0,0,1-13,6.33A15.12,15.12,0,0,1,57.38,89c-3.06-4.14-4.6-9.86-4.6-17V70.06c0-7.15,1.54-12.85,4.6-17a15.08,15.08,0,0,1,12.81-6.33,15.64,15.64,0,0,1,13,6.33C86.32,57.19,87.93,62.91,87.93,70.06Z"/></g></g></svg>