<svg width="170" height="58" viewBox="0 0 170 58" fill="none" xmlns="http://www.w3.org/2000/svg">
<path d="M11.52 41V12.104H1.2V7.4H27.024V12.104H16.704V41H11.52ZM35.0389 41.672C33.3429 41.672 31.8229 41.384 30.4789 40.808C29.1669 40.232 28.1109 39.384 27.3109 38.264C26.5429 37.144 26.1589 35.784 26.1589 34.184C26.1589 32.552 26.5429 31.208 27.3109 30.152C28.1109 29.064 29.1829 28.248 30.5269 27.704C31.9029 27.16 33.4549 26.888 35.1829 26.888H42.3829V25.352C42.3829 23.976 41.9669 22.872 41.1349 22.04C40.3029 21.208 39.0229 20.792 37.2949 20.792C35.5989 20.792 34.3029 21.192 33.4069 21.992C32.5109 22.792 31.9189 23.832 31.6309 25.112L27.0229 23.624C27.4069 22.344 28.0149 21.192 28.8469 20.168C29.7109 19.112 30.8469 18.264 32.2549 17.624C33.6629 16.984 35.3589 16.664 37.3429 16.664C40.4149 16.664 42.8309 17.448 44.5909 19.016C46.3509 20.584 47.2309 22.808 47.2309 25.688V35.432C47.2309 36.392 47.6789 36.872 48.5749 36.872H50.5909V41H46.8949C45.7749 41 44.8629 40.712 44.1589 40.136C43.4549 39.56 43.1029 38.776 43.1029 37.784V37.64H42.3829C42.1269 38.12 41.7429 38.68 41.2309 39.32C40.7189 39.96 39.9669 40.52 38.9749 41C37.9829 41.448 36.6709 41.672 35.0389 41.672ZM35.7589 37.592C37.7429 37.592 39.3429 37.032 40.5589 35.912C41.7749 34.76 42.3829 33.192 42.3829 31.208V30.728H35.4709C34.1589 30.728 33.1029 31.016 32.3029 31.592C31.5029 32.136 31.1029 32.952 31.1029 34.04C31.1029 35.128 31.5189 35.992 32.3509 36.632C33.1829 37.272 34.3189 37.592 35.7589 37.592ZM53.6835 29.288V28.568C53.6835 26.072 54.1795 23.944 55.1715 22.184C56.1955 20.424 57.5395 19.064 59.2035 18.104C60.8675 17.144 62.6915 16.664 64.6755 16.664C66.9795 16.664 68.7395 17.096 69.9555 17.96C71.2035 18.824 72.1155 19.752 72.6915 20.744H73.4595V17.336H78.2595V45.848C78.2595 47.288 77.8275 48.44 76.9635 49.304C76.1315 50.168 74.9795 50.6 73.5075 50.6H57.5715V46.28H71.9715C72.8995 46.28 73.3635 45.8 73.3635 44.84V37.304H72.5955C72.2435 37.88 71.7475 38.472 71.1075 39.08C70.4675 39.688 69.6195 40.184 68.5635 40.568C67.5395 40.952 66.2435 41.144 64.6755 41.144C62.6915 41.144 60.8515 40.68 59.1555 39.752C57.4915 38.792 56.1635 37.432 55.1715 35.672C54.1795 33.88 53.6835 31.752 53.6835 29.288ZM66.0195 36.824C68.1635 36.824 69.9235 36.152 71.2995 34.808C72.7075 33.432 73.4115 31.544 73.4115 29.144V28.712C73.4115 26.248 72.7235 24.36 71.3475 23.048C69.9715 21.704 68.1955 21.032 66.0195 21.032C63.9075 21.032 62.1475 21.704 60.7395 23.048C59.3635 24.36 58.6755 26.248 58.6755 28.712V29.144C58.6755 31.544 59.3635 33.432 60.7395 34.808C62.1475 36.152 63.9075 36.824 66.0195 36.824ZM99.2186 41.672C96.9146 41.672 95.1386 41.256 93.8906 40.424C92.6746 39.592 91.7626 38.664 91.1546 37.64H90.3866V41H85.5386V7.4H90.4826V20.552H91.2506C91.6346 19.912 92.1466 19.304 92.7866 18.728C93.4266 18.12 94.2746 17.624 95.3306 17.24C96.3866 16.856 97.6826 16.664 99.2186 16.664C101.203 16.664 103.027 17.144 104.691 18.104C106.355 19.064 107.683 20.456 108.675 22.28C109.667 24.104 110.163 26.28 110.163 28.808V29.528C110.163 32.088 109.651 34.28 108.627 36.104C107.635 37.896 106.307 39.272 104.643 40.232C103.011 41.192 101.203 41.672 99.2186 41.672ZM97.7786 37.352C99.9226 37.352 101.683 36.664 103.059 35.288C104.467 33.912 105.171 31.944 105.171 29.384V28.952C105.171 26.424 104.483 24.472 103.107 23.096C101.731 21.72 99.9546 21.032 97.7786 21.032C95.6666 21.032 93.9066 21.72 92.4986 23.096C91.1226 24.472 90.4346 26.424 90.4346 28.952V29.384C90.4346 31.944 91.1226 33.912 92.4986 35.288C93.9066 36.664 95.6666 37.352 97.7786 37.352ZM127.377 41.672C125.009 41.672 122.897 41.192 121.041 40.232C119.217 39.24 117.777 37.832 116.721 36.008C115.665 34.184 115.137 32.024 115.137 29.528V28.808C115.137 26.312 115.665 24.168 116.721 22.376C117.777 20.552 119.217 19.144 121.041 18.152C122.897 17.16 125.009 16.664 127.377 16.664C129.745 16.664 131.857 17.16 133.713 18.152C135.569 19.144 137.025 20.552 138.081 22.376C139.137 24.168 139.665 26.312 139.665 28.808V29.528C139.665 32.024 139.137 34.184 138.081 36.008C137.025 37.832 135.569 39.24 133.713 40.232C131.857 41.192 129.745 41.672 127.377 41.672ZM127.377 37.256C129.553 37.256 131.313 36.568 132.657 35.192C134.033 33.784 134.721 31.848 134.721 29.384V28.952C134.721 26.488 134.049 24.568 132.705 23.192C131.361 21.784 129.585 21.08 127.377 21.08C125.233 21.08 123.473 21.784 122.097 23.192C120.753 24.568 120.081 26.488 120.081 28.952V29.384C120.081 31.848 120.753 33.784 122.097 35.192C123.473 36.568 125.233 37.256 127.377 37.256ZM142.257 41L151.281 29.048L142.449 17.336H148.257L154.449 25.832H155.217L161.409 17.336H167.265L158.385 29.048L167.409 41H161.505L155.217 32.312H154.449L148.161 41H142.257Z" fill="white"/>
<line x1="9" y1="52.5" x2="76" y2="52.5" stroke="white"/>
<line x1="94" y1="52.5" x2="168" y2="52.5" stroke="white"/>
<circle cx="85" cy="53" r="5" fill="white"/>
</svg>
